# xmcd
# 
# Track frame offsets:
#     150
#     20002
#     42557
#     55435
#     72860
#     105753
#     137685
#     154399
#     170550
#     195748
#     220205
# 
# Disc length: 3127
# 
# Revision: 1
# Processed by: cddbd v1.5.2PL0 Copyright (c) Steve Scherf et al.
# Submitted via: fre:ac v1.0.31
# 
DISCID=a00c350b
DTITLE=Robin Trower - Time And Emotion
DYEAR=2017
DGENRE=Rock/Pop
TTITLE0=The Land Of Plenty
TTITLE1=What Was I Really Worth To You
TTITLE2=I'm Gone
TTITLE3=Bitten By The Snake
TTITLE4=Returned In Kind
TTITLE5=If You Believe In Me
TTITLE6=You're The One
TTITLE7=Can't Turn Back The Clock
TTITLE8=Make Up Your Mind
TTITLE9=Try Love
TTITLE10=Time And Emotion
EXTD=
EXTT0=
EXTT1=
EXTT2=
EXTT3=
EXTT4=
EXTT5=
EXTT6=
EXTT7=
EXTT8=
EXTT9=
EXTT10=
PLAYORDER=
